<svg xmlns="http://www.w3.org/2000/svg" viewBox="0 0 387.721 307.91"><path fill="#f2c802" fill-rule="evenodd" d="M158.1 25.255c22.691.478 43.812 12.181 54.375 32.594 13.785 26.64 5.036 59.348-19.188 78.688-3.692 3.916-5.224 8.678-3.531 12.625 1.716 4.001 6.298 6.194 12.148 5.805s24.589-5.362 33.759-6.867c9.88-1.623 13.566-3.695 28.312-10.625 11.746-5.521 14.9-18.752 19.495-23.97 3.278-5.012 8.355-7.84 13.625-6.843 4.075.77 6.612 2.192 8.572 5.655 0 0 11.004 21.248 12.77 25.314S329.144 157.78 331 173.85c13.29 114.98-147.01 127.1-227.56 109.81-30.801-6.61-54.625-32.51-54.625-65.095 0-24.429 13.254-45.725 32.969-57.156 6.164-4.199 11.526-9.611 15.688-16.219a55.21 55.21 0 0 0 5.469-11.406c-3.984-4.066-7.427-8.725-10.156-14-15.86-30.649-1.929-69.365 31.125-86.469 10.329-5.345 21.309-7.945 32-8.062a68.14 68.14 0 0 1 2.187 0z"/><path fill="#da9c16" fill-rule="evenodd" d="M65.444 174.51c-5.578 9.682-8.781 20.921-8.781 32.906 0 32.584 23.824 58.485 54.625 65.094 60.909 13.069 163.52 9.32 208.65-43-38.071 62.918-151.76 68.101-216.75 54.156-30.801-6.61-54.625-32.51-54.625-65.094 0-16.948 6.385-32.378 16.875-44.062zM126.9 66.568c-10.804 0-19.563 8.759-19.563 19.562s8.759 19.562 19.563 19.562 19.562-8.759 19.562-19.562c0-4.348-1.444-8.346-3.844-11.594a16.342 16.342 0 0 1 2.782 9.094c0 9.021-7.323 16.312-16.344 16.312s-16.344-7.291-16.344-16.312 7.322-16.344 16.344-16.344c2.745 0 5.323.679 7.593 1.875a19.498 19.498 0 0 0-9.75-2.594z"/><path fill="#393228" fill-rule="evenodd" d="M112.723 83.617a16.335 16.335 0 1 0 32.67 0 16.335 16.335 0 1 0-32.67 0z"/><path fill="#b94519" fill-rule="evenodd" d="M104.82 105.3c-1.181-3.025-7.379-7.308-12.744-5.939-1.254.32-4.803-6.28-6.013-6.134-3.233.387-5.515 3.45-6.915 4.819-3.897 3.808-18.111 2.193-21.747 3.058-5.258 7.388 12.256 20.214 20.997 14.792 4.64-1.488 1.715.772.76 1.788-5.854 6.237-11.978 10.214-9.325 12.867 5.355 5.355 21.872 1.183 28.092-5.036 9.771-9.771 8.228-16.8 6.895-20.215z"/><path fill="none" stroke="#f2c802" stroke-linecap="round" stroke-linejoin="round" stroke-width="15" d="M151.75 32.843c-10.162 0-20.457-.725-28.207-8.475"/><path fill="none" stroke="#fff" stroke-linecap="round" stroke-linejoin="round" stroke-width="5" d="M205.1 164.31s12.731-1.7 28.299-5.163c1.354-.301 2.73-.616 4.121-.944a275.68 275.68 0 0 0 12.407-3.217c3.034-.867 2.93-.687 6.223-1.978m9.865-3.974c10.746-4.433 16.943-8.37 17.981-10.186"/><path fill="#fff" fill-rule="evenodd" d="M138.425 79.316a7.89 7.89 0 1 1-15.779 0 7.89 7.89 0 1 1 15.779 0z"/><path fill="none" stroke="#fff" stroke-linecap="round" stroke-linejoin="round" stroke-width="5" d="M175.65 36.725s5.827 1.448 12.15 6.843m4.92 4.376c.783.772 1.58 1.607 2.387 2.508 8.622 9.636 13.483 20.107 13.483 26.193"/></svg>